<?xml version="1.0" encoding="utf-8"?>
<!-- Generator: Adobe Illustrator 24.1.2, SVG Export Plug-In . SVG Version: 6.00 Build 0)  -->
<svg version="1.1" id="Capa_1" xmlns="http://www.w3.org/2000/svg" xmlns:xlink="http://www.w3.org/1999/xlink" x="0px" y="0px"
	 viewBox="0 0 1366 768" style="enable-background:new 0 0 1366 768;" xml:space="preserve">
<style type="text/css">
	.st0{fill:#03588C;}
	.st1{fill:#55D8D8;}
	.st2{fill:#D8FF33;}
	.st3{fill:#6BF2EE;}
	.st4{fill:#F5FF92;}
	.st5{fill:#D5D977;}
	.st6{fill:#F2A03D;}
	.st7{fill:#FFD200;}
	.st8{fill:#FFE600;}
</style>
<g>
	<g>
		<path class="st0" d="M675.81,144.99l-54.81,54.2c-34.68-36.69-75.11-55.04-121.29-55.04c-40.25,0-73.96,13.34-101.13,40.03
			s-40.76,59.11-40.76,97.29c0,39.47,14.1,72.92,42.29,100.34c28.2,27.43,62.98,41.14,104.35,41.14c26.9,0,49.58-5.65,68.03-16.96
			c18.46-11.3,33.34-29,44.66-53.09H498.75v-73.1h205.69l0.56,17.23c0,35.77-9.27,69.68-27.8,101.73
			c-18.53,32.06-42.53,56.52-71.99,73.38c-29.46,16.86-64.03,25.29-103.68,25.29c-42.44,0-80.29-9.22-113.55-27.66
			c-33.26-18.44-59.58-44.7-78.94-78.8C289.68,356.9,280,320.11,280,280.64c0-54.11,17.88-101.18,53.65-141.2
			C376.08,91.81,431.3,68,499.31,68c35.58,0,68.84,6.58,99.79,19.74C625.23,98.85,650.8,117.94,675.81,144.99z"/>
	</g>
</g>
<path class="st1" d="M583.35,262.69c-3.17,0-6.33,0.32-9.44,0.94c-2.34-11.69-9.91-21.66-20.54-27.05
	c-10.63-5.4-23.14-5.62-33.96-0.62c-9.79-26.97-39.59-40.89-66.55-31.1s-40.89,39.59-31.1,66.55c-23.62,0.75-42.28,20.3-41.93,43.93
	c0.36,23.63,19.59,42.61,43.23,42.65h160.29c26.32,0,47.65-21.34,47.65-47.65S609.66,262.69,583.35,262.69z"/>
<path class="st2" d="M995.78,285.71c0.01,12.69-1.73,25.32-5.18,37.53l-3.95,0.4c-0.32,0.03-0.65,0.06-0.96,0.07l-3.34,0.15
	c-8.86,0.37-16.72,5.77-20.26,13.89l-0.85,1.94c-2.91,6.63-9.47,10.92-16.72,10.92h-14.2c-3.39,0.01-6.24-2.56-6.57-5.94l-0.57-5.68
	c-0.68-7.02-4.55-13.35-10.49-17.16c-2.33-1.5-3.73-4.07-3.73-6.84v-5.69c0-3.19,1.37-6.23,3.77-8.35L937,279.55
	c6.98-6.19,9.72-15.87,7.03-24.79c-2.8-9.22-10.76-15.92-20.33-17.1l-2.45-0.3c-2.92-0.36-5.61-1.78-7.55-4
	c-1.89-2.15-2.22-5.27-0.83-7.77l5.08-8.69c6.28-10.72,13.69-20.75,22.09-29.9l5.48-7.64C977.38,205.47,995.83,244.52,995.78,285.71
	z"/>
<path class="st1" d="M986.66,323.64l3.95-0.4c-16.34,57.82-69.49,100.18-132.54,100.18c-76.06,0-137.71-61.66-137.71-137.71
	c0-4.33,0.2-8.62,0.59-12.85l1.66,0.16l1.88-0.37c9.12-1.78,18.37,2.41,23.03,10.45c1.07,1.84,2.41,3.51,3.96,4.97l9.79,9.22
	c1.75,1.64,3.88,2.84,6.19,3.47l1.14,0.31c6.74,1.85,12.02,7.11,13.9,13.84l5.24,18.94c0.63,2.27,1.69,4.41,3.13,6.28l15.9,20.85
	c1.98,2.6,3.3,5.65,3.84,8.88l4.32,25.93c0.14,0.93,0.61,1.78,1.34,2.38c1.05,0.85,2.49,1.05,3.73,0.52
	c2.5-1.05,4.22-3.39,4.46-6.09c0.52-5.3,2.64-10.32,6.08-14.39l4.61-5.54c0.81-0.98,1.43-2.11,1.8-3.33L841.7,354
	c1.4-4.54,4.17-8.53,7.94-11.42l14.09-10.81c1.02-0.76,1.72-1.89,1.94-3.14c0.23-1.39-0.17-2.82-1.08-3.89l-9.38-11.03
	c-0.56-0.66-1.1-1.34-1.6-2.05l-7.17-9.99c-3.96-5.53-10.3-9.2-17.11-9.02c-0.68,0.02-1.36-0.16-1.94-0.51l-14.65-8.79
	c-4.29-2.56-9.6-2.69-14-0.34l-7.72,4.14c-7.01,3.75-15.73,1.46-19.98-5.26l-7.5-11.84c-3.47-5.48-3.36-12.5,0.28-17.87
	c3.89-5.77,10.7-8.85,17.6-7.95l11.25,1.43c4.01,0.55,7.97-1.34,10.05-4.82c3.59-6.18,10.53-9.6,17.62-8.7l4.92,0.63
	c3.51,0.44,6.99-1.01,9.16-3.81l4.33-5.62c3.92-5.06,4.1-12.08,0.44-17.33l-9.35-13.47c-3.58-5.17-8.25-9.5-13.68-12.68
	c-1.43-0.83-2.8-1.75-4.13-2.74l-7.87-5.91l-9.97-7.51c49.02-25.64,108.62-19.48,151.36,15.65l-5.48,7.64
	c-8.4,9.16-15.81,19.18-22.09,29.9l-5.08,8.69c-1.4,2.5-1.07,5.62,0.83,7.77c1.94,2.22,4.63,3.64,7.55,4l2.45,0.3
	c9.56,1.18,17.53,7.89,20.33,17.1c2.69,8.93-0.05,18.61-7.03,24.79l-24.26,21.43c-2.39,2.11-3.76,5.15-3.77,8.35v5.69
	c-0.01,2.77,1.4,5.34,3.73,6.84c5.94,3.81,9.81,10.13,10.49,17.16l0.57,5.68c0.33,3.38,3.17,5.95,6.57,5.94h14.2
	c7.25,0,13.8-4.29,16.72-10.92l0.85-1.94c3.53-8.13,11.4-13.52,20.26-13.89l3.34-0.15C986.01,323.7,986.34,323.67,986.66,323.64z"/>
<path class="st2" d="M864.59,324.73c0.92,1.07,1.32,2.5,1.08,3.89c-0.23,1.26-0.92,2.38-1.94,3.14l-14.09,10.81
	c-3.77,2.89-6.54,6.88-7.94,11.42l-4.74,15.36c-0.37,1.22-0.98,2.35-1.8,3.33l-4.61,5.54c-3.44,4.07-5.56,9.09-6.08,14.39
	c-0.24,2.7-1.96,5.04-4.46,6.09c-1.25,0.52-2.68,0.32-3.73-0.52c-0.72-0.6-1.2-1.45-1.34-2.38l-4.32-25.93
	c-0.54-3.23-1.86-6.28-3.84-8.88l-15.9-20.85c-1.43-1.88-2.49-4.01-3.13-6.28l-5.24-18.94c-1.88-6.73-7.16-11.99-13.9-13.84
	l-1.14-0.31c-2.32-0.63-4.44-1.82-6.19-3.47l-9.79-9.22c-1.55-1.46-2.88-3.13-3.96-4.97c-4.66-8.04-13.91-12.24-23.03-10.45
	l-1.88,0.37l-1.66-0.16c4.35-46.44,31.91-87.52,73.22-109.17l9.97,7.51l7.87,5.91c1.32,0.99,2.7,1.9,4.13,2.74
	c5.43,3.18,10.1,7.5,13.68,12.68l9.35,13.47c3.66,5.25,3.48,12.27-0.44,17.33l-4.33,5.62c-2.16,2.8-5.65,4.24-9.16,3.81l-4.92-0.63
	c-7.09-0.91-14.03,2.52-17.62,8.7c-2.08,3.47-6.04,5.37-10.05,4.82l-11.25-1.43c-6.9-0.9-13.71,2.18-17.6,7.95
	c-3.64,5.37-3.74,12.39-0.28,17.87l7.5,11.84c4.25,6.72,12.97,9.01,19.98,5.26l7.72-4.14c4.41-2.34,9.72-2.21,14,0.34l14.65,8.79
	c0.59,0.35,1.26,0.53,1.94,0.51c6.81-0.18,13.15,3.48,17.11,9.02l7.17,9.99c0.5,0.7,1.03,1.39,1.6,2.05L864.59,324.73z"/>
<path class="st3" d="M859.07,146c-22.26-0.03-44.19,5.35-63.9,15.69l9.97,7.51l7.87,5.91c1.29,0.96,2.63,1.86,4.02,2.67l0.62-0.36
	c40.29-21.06,88.37-20.92,128.53,0.39l0.35-0.48C921.92,157.03,890.99,145.95,859.07,146z"/>
<path class="st3" d="M742.84,301.45c0-4.33,0.2-8.62,0.59-12.85l1.3-9.28c-5.12-5.61-12.79-8.14-20.24-6.67l-1.88,0.37l-1.66-0.16
	c-0.39,4.23-0.58,8.52-0.59,12.85c-0.02,49.86,26.93,95.83,70.44,120.18C760.32,379.76,742.8,341.6,742.84,301.45z"/>
<path class="st4" d="M744.63,279.22c6.97-42.47,33.37-79.26,71.39-99.44c-1.38-0.81-2.71-1.7-4-2.66l-7.87-5.91l-9.97-7.51
	c-41.32,21.65-68.87,62.73-73.22,109.17l1.66,0.16l1.88-0.37C731.89,271.2,739.51,273.68,744.63,279.22z"/>
<g>
	<path class="st5" d="M1032.47,154.25l-53.25,50.76c-36.22-38.28-76.98-57.43-122.25-57.43c-38.22,0-70.41,13.06-96.58,39.19
		c-26.17,26.13-39.26,58.34-39.26,96.63c0,26.67,5.8,50.35,17.39,71.04c11.59,20.69,27.98,36.92,49.17,48.72
		c21.19,11.79,44.74,17.69,70.64,17.69c22.09,0,42.29-4.13,60.58-12.38c18.29-8.25,38.39-23.27,60.31-45.04l51.62,53.86
		c-29.55,28.84-57.47,48.83-83.75,59.99c-26.29,11.15-56.29,16.73-90,16.73c-62.18,0-113.07-19.71-152.68-59.14
		C664.8,395.43,645,344.9,645,283.27c0-39.88,9.02-75.32,27.06-106.32c18.04-31,43.87-55.92,77.49-74.78
		c33.62-18.85,69.83-28.28,108.63-28.28c32.99,0,64.76,6.97,95.3,20.9C984.03,108.74,1010.35,128.56,1032.47,154.25z"/>
</g>
<path class="st3" d="M388.82,319.35c-0.35-23.63,18.31-43.18,41.93-43.93c-9.79-26.96,4.13-56.76,31.1-66.55
	c11.48-4.17,23.47-4.02,34.22-0.42c-12.74-7.17-28.4-8.96-43.22-3.58c-26.97,9.79-40.89,39.59-31.1,66.55
	c-23.62,0.75-42.28,20.3-41.93,43.93c0.29,19.15,12.98,35.25,30.36,40.68C397.59,348.61,389.06,335,388.82,319.35z"/>
<path class="st6" d="M489.45,354.06l-18.77-16.56l18.11-17.28c0.67-0.63,0.94-1.57,0.72-2.46c-0.22-0.89-0.9-1.6-1.79-1.85
	l-24.1-6.96l8.91-23.33c0.33-0.86,0.17-1.82-0.41-2.53c-0.58-0.71-1.5-1.06-2.41-0.91l-24.77,3.99l-2.01-24.87
	c-0.07-0.91-0.63-1.72-1.47-2.11s-1.81-0.31-2.57,0.21l-20.66,14.17l-12.55-21.61c-0.46-0.79-1.31-1.28-2.23-1.28
	s-1.77,0.49-2.23,1.28l-14.4,24.81l-24.92-14.38c-0.8-0.46-1.78-0.46-2.58-0.01c-0.8,0.46-1.29,1.3-1.3,2.22l-0.06,24.95
	l-25.01-2.06c-0.92-0.08-1.81,0.34-2.33,1.09c-0.53,0.75-0.61,1.73-0.21,2.56l10.71,22.57l-23.48,8.8
	c-0.86,0.32-1.49,1.08-1.64,1.98c-0.15,0.9,0.2,1.82,0.91,2.4l19.41,15.82l-17.42,17.97c-0.64,0.66-0.88,1.61-0.62,2.49
	c0.26,0.88,0.96,1.56,1.86,1.78l24.36,6.02l-7.99,23.66c-0.29,0.87-0.1,1.83,0.51,2.51c0.61,0.69,1.54,1,2.45,0.82l24.6-4.95
	l2.99,24.78c0.11,0.91,0.7,1.69,1.55,2.05c0.85,0.36,1.82,0.24,2.56-0.31l20.09-14.96l13.39,20.42c0.47,0.75,1.3,1.2,2.18,1.2
	c0.03,0,0.07,0,0.1,0c0.92-0.04,1.75-0.56,2.18-1.37l11.69-21.39l21.2,13.36c0.78,0.49,1.76,0.53,2.58,0.11
	c0.82-0.43,1.34-1.25,1.38-2.17l1.04-24.93l24.91,3.03c0.91,0.11,1.82-0.27,2.37-1c0.55-0.73,0.67-1.7,0.31-2.55l-9.82-22.97
	l23.81-7.88c0.87-0.29,1.53-1.02,1.71-1.92C490.45,355.6,490.14,354.67,489.45,354.06z"/>
<ellipse class="st7" cx="402.56" cy="337.98" rx="53.15" ry="53.11"/>
<path class="st8" d="M401,390c1.28,0,2.55-0.05,3.8-0.14c-26.45-1.94-47.3-24-47.3-50.93c0-26.93,20.86-48.98,47.3-50.93
	c-1.26-0.09-2.52-0.14-3.8-0.14c-28.23,0-51.11,22.86-51.11,51.07C349.89,367.14,372.77,390,401,390z"/>
<g>
	<path class="st0" d="M296.13,550.48l-14.44,14.28c-9.14-9.67-19.79-14.5-31.96-14.5c-10.61,0-19.49,3.52-26.65,10.55
		c-7.16,7.03-10.74,15.58-10.74,25.63c0,10.4,3.71,19.21,11.14,26.44c7.43,7.23,16.6,10.84,27.5,10.84c7.09,0,13.06-1.49,17.93-4.47
		c4.86-2.98,8.79-7.64,11.77-13.99h-31.2V586h54.2l0.15,4.54c0,9.42-2.44,18.36-7.32,26.81c-4.88,8.45-11.21,14.89-18.97,19.34
		s-16.87,6.67-27.32,6.67c-11.18,0-21.16-2.43-29.92-7.29c-8.77-4.86-15.7-11.78-20.8-20.76c-5.1-8.98-7.65-18.68-7.65-29.08
		c0-14.26,4.71-26.66,14.14-37.21c11.18-12.55,25.73-18.82,43.65-18.82c9.38,0,18.14,1.73,26.29,5.2
		C282.8,538.32,289.54,543.35,296.13,550.48z"/>
	<path class="st0" d="M322.64,532.9h20.51v88.18h29.88v19.56h-50.39V532.9z"/>
	<path class="st0" d="M439.5,530.19c15.24,0,28.35,5.52,39.32,16.55c10.97,11.04,16.45,24.49,16.45,40.36
		c0,15.72-5.41,29.03-16.23,39.92c-10.82,10.89-23.95,16.33-39.39,16.33c-16.17,0-29.61-5.59-40.31-16.77
		c-10.7-11.18-16.05-24.46-16.05-39.84c0-10.3,2.49-19.78,7.48-28.42s11.84-15.49,20.56-20.54
		C420.04,532.72,429.43,530.19,439.5,530.19z M439.28,550.26c-9.97,0-18.35,3.47-25.15,10.4c-6.79,6.93-10.19,15.75-10.19,26.44
		c0,11.91,4.28,21.34,12.83,28.27c6.65,5.42,14.27,8.13,22.87,8.13c9.73,0,18.01-3.52,24.85-10.55c6.84-7.03,10.27-15.7,10.27-26
		c0-10.25-3.45-18.93-10.34-26.04C457.54,553.81,449.15,550.26,439.28,550.26z"/>
	<path class="st0" d="M514.61,640.64V532.9h16.94c9.83,0,17.01,0.63,21.56,1.9c6.45,1.71,11.59,4.88,15.4,9.52
		c3.81,4.64,5.72,10.11,5.72,16.41c0,4.1-0.87,7.83-2.6,11.17c-1.73,3.35-4.55,6.48-8.46,9.41c6.54,3.08,11.33,6.92,14.36,11.54
		c3.03,4.62,4.54,10.07,4.54,16.37c0,6.05-1.56,11.57-4.69,16.55s-7.16,8.7-12.1,11.17c-4.94,2.47-11.76,3.7-20.46,3.7H514.61z
		 M535.12,552.46v22.71h4.49c5,0,8.71-1.05,11.14-3.15c2.43-2.1,3.64-4.96,3.64-8.57c0-3.37-1.15-6.04-3.46-8.02
		c-2.3-1.98-5.81-2.97-10.51-2.97H535.12z M535.12,593.47v27.61h5.14c8.52,0,14.26-1.07,17.22-3.22c2.96-2.15,4.44-5.27,4.44-9.38
		c0-4.64-1.74-8.3-5.21-10.99c-3.48-2.68-9.25-4.03-17.33-4.03H535.12z"/>
	<path class="st0" d="M634.49,532.9h20.8l41.44,107.74h-21.31l-8.43-22.19h-43.96l-8.76,22.19h-21.31L634.49,532.9z M645.02,561.46
		l-14.46,36.99h28.82L645.02,561.46z"/>
	<path class="st0" d="M712.58,532.9h20.51v88.18h29.88v19.56h-50.39V532.9z"/>
	<path class="st5" d="M921.69,552.89l-8.5,6.52c-4.69-6.1-10.32-10.73-16.88-13.88c-6.57-3.15-13.78-4.72-21.64-4.72
		c-8.59,0-16.55,2.06-23.88,6.19c-7.32,4.13-13,9.67-17.03,16.63c-4.03,6.96-6.04,14.78-6.04,23.47c0,13.14,4.5,24.1,13.51,32.89
		c9.01,8.79,20.37,13.18,34.09,13.18c15.09,0,27.71-5.91,37.87-17.72l8.5,6.45c-5.37,6.84-12.07,12.12-20.1,15.86
		c-8.03,3.73-17,5.6-26.92,5.6c-18.85,0-33.72-6.27-44.6-18.82c-9.13-10.59-13.7-23.39-13.7-38.38c0-15.77,5.53-29.04,16.59-39.81
		c11.06-10.77,24.91-16.15,41.57-16.15c10.06,0,19.14,1.99,27.25,5.97C909.87,540.14,916.51,545.72,921.69,552.89z"/>
	<path class="st5" d="M943.3,532.9h10.77v97.34h41.46v10.4H943.3V532.9z"/>
	<path class="st5" d="M1011.05,532.9h10.77v107.74h-10.77V532.9z"/>
	<path class="st5" d="M1041.59,640.64l15.43-107.74h1.75l43.8,88.4l43.38-88.4h1.73l15.5,107.74h-10.56l-10.64-77.05l-38.09,77.05
		h-2.75L1062.57,563l-10.58,77.64H1041.59z"/>
</g>
</svg>
